
        <svg xmlns="http://www.w3.org/2000/svg" xmlns:xlink="http://www.w3.org/1999/xlink" version="1.1" width="3171.4285714285716" 
        height="1632.8583332765315" viewBox="0 0 3171.4285714285716 1632.8583332765315">
			
			<g transform="scale(8.571428571428571) translate(10, 10)">
				<defs id="SvgjsDefs7384"></defs><g id="SvgjsG7385" featureKey="cWd8YO-0" transform="matrix(6.076388888888888,0,0,6.076388888888888,127,-24.305555555555554)" fill="#0081c6"><path xmlns="http://www.w3.org/2000/svg" d="M0 0v8h8v-4.093999999999999l-1 1v2.094h-6v-6h4.188l1-1h-6.188zm7.594 0l-3.094 3.063-1.281-1.281-1.438 1.438 2 2 .719.688.719-.688 3.781-3.813-1.406-1.406zm2.406 2v1h6v-1h-6zm0 3v1h5v-1h-5z" transform="translate(0 4)"></path></g><g id="SvgjsG7386" featureKey="TZbA6h-0" transform="matrix(4.27350339768821,0,0,4.27350339768821,-3.3333315090482833,44.897443445377974)" fill="#48466d"><path d="M0.78 20 l0 -2.32 l1.44 0 l0 -8.58 l-1.44 0 l0 -2.32 l6.24 0 l0 2.32 l-1.44 0 l0 8.58 l1.44 0 l0 2.32 l-6.24 0 z M14.94 20.28 c-4.3 0 -6.52 -2.92 -6.52 -6.92 c0 -4.1 2.32 -6.86 6.64 -6.86 c4.08 0 6.54 2.46 6.54 6.7 c0 4.1 -2.32 7.08 -6.66 7.08 z M15 17.5 c1.88 0 3.06 -1.24 3.06 -4.16 c0 -2.88 -1.14 -4.06 -3.02 -4.06 c-1.94 0 -3.08 1.26 -3.08 4.1 c0 2.88 1.16 4.12 3.04 4.12 z M23.599999999999998 16.8 l0 -3.88 l-1.06 0 l0 -2.26 l4.18 0 l0 5.34 c0 1.1 0.26 1.64 0.9 1.64 c1.08 0 1.66 -1.38 1.84 -1.96 l0 -2.76 l-1.06 0 l0 -2.26 l4.18 0 l0 7.08 l1.06 0 l0 2.26 l-3.88 0 l-0.08 -1.68 c-0.26 0.64 -1.04 1.96 -3.1 1.96 c-1.38 0 -2.98 -0.56 -2.98 -3.48 z M42.019999999999996 9.7 l0 -1.14 l2.46 0.38 c0.06 0.36 0.08 0.66 0.08 0.86 c0 0.82 -0.34 1.52 -1.42 2.04 c0.38 0.5 0.6 1.16 0.6 1.92 c0 2.2 -1.66 3.5 -4.52 3.5 c-0.66 0 -1.24 -0.06 -1.76 -0.2 c-0.2 0.16 -0.32 0.34 -0.32 0.52 c0 0.76 1.9 0.7 3.38 0.8 c2.48 0.18 3.94 0.88 3.94 2.92 c0 2.78 -2.68 3.54 -5.1 3.54 c-2.68 0 -4.76 -0.92 -4.76 -2.56 c0 -1.02 0.76 -1.64 1.62 -2.16 c-1 -0.26 -1.62 -0.86 -1.62 -1.74 c0 -0.76 0.48 -1.38 1.34 -2.04 c-0.74 -0.58 -1.12 -1.44 -1.12 -2.5 c0 -2.14 1.58 -3.46 4.5 -3.46 c0.94 0 1.74 0.14 2.4 0.42 c0.22 -0.28 0.3 -0.5 0.3 -1.1 z M38.16 20.68 c-0.7 0.48 -0.88 0.74 -0.88 1.04 c0 0.44 0.38 0.9 2.08 0.9 c1.38 0 2.28 -0.3 2.28 -0.96 c0 -0.46 -0.42 -0.76 -1.22 -0.8 c-1.08 -0.06 -1.48 -0.1 -2.26 -0.18 z M39.26 15.2 c0.82 0 1.24 -0.5 1.24 -1.4 c0 -0.88 -0.42 -1.36 -1.22 -1.36 s-1.22 0.5 -1.22 1.4 c0 0.84 0.36 1.36 1.2 1.36 z M44.94 20 l0 -2.26 l1.06 0 l0 -9.84 l-1.26 0 l0 -2.26 l4.38 0 l0 6.24 c0.38 -0.64 1.2 -1.5 2.88 -1.5 c1.38 0 2.98 0.56 2.98 3.48 l0 3.88 l1.06 0 l0 2.26 l-5.04 0 l0 -2.26 l0.86 0 l0 -3.08 c0 -1.12 -0.26 -1.64 -0.92 -1.64 c-1.08 0 -1.66 1.4 -1.82 1.96 l0 2.76 l0.86 0 l0 2.26 l-5.04 0 z M57.919999999999995 16.96 l0 -4.04 l-1.36 0 l0 -2.26 l1.4 0 l0.18 -2.56 l2.9 0 l0 2.56 l2.56 0 l0 2.26 l-2.56 0 l0 4.04 c0 0.46 0.14 0.74 0.54 0.74 c0.5 0 0.6 -0.56 0.64 -1.12 l2.28 0.8 c-0.4 1.58 -1.02 2.82 -3.3 2.82 c-2.48 0 -3.28 -1.58 -3.28 -3.24 z M66.04 16.96 l0 -4.04 l-1.36 0 l0 -2.26 l1.4 0 l0.18 -2.56 l2.9 0 l0 2.56 l2.56 0 l0 2.26 l-2.56 0 l0 4.04 c0 0.46 0.14 0.74 0.54 0.74 c0.5 0 0.6 -0.56 0.64 -1.12 l2.28 0.8 c-0.4 1.58 -1.02 2.82 -3.3 2.82 c-2.48 0 -3.28 -1.58 -3.28 -3.24 z M76.48 13.9 l-3.1 -0.58 c-0.02 -0.1 -0.02 -0.2 -0.02 -0.3 c0 -1.48 1.44 -2.64 4.3 -2.64 s3.92 1.18 3.92 3.76 l0 2.2 c0 0.86 0.02 1.36 0.66 1.36 c0.12 0 0.26 -0.02 0.44 -0.06 l-0.56 2.46 c-0.34 0.06 -0.64 0.08 -0.9 0.08 c-1.48 0 -2.12 -0.7 -2.34 -1.3 c-0.48 0.68 -1.2 1.4 -2.66 1.4 c-1.7 0 -3.16 -0.96 -3.16 -2.74 c0 -2.16 2.14 -3.14 5.4 -3.16 l0 -0.28 c0 -1.06 -0.26 -1.44 -1.02 -1.44 c-0.64 0 -0.98 0.26 -0.98 0.96 c0 0.08 0 0.18 0.02 0.28 z M78.46000000000001 16.88 l0 -0.74 c-1.22 0.02 -2.26 0.24 -2.26 1.16 c0 0.52 0.34 0.76 0.86 0.76 c0.6 0 1.32 -0.32 1.4 -1.18 z"></path></g><g id="SvgjsG7387" featureKey="hKLqjk-0" transform="matrix(0.5965430213798285,0,0,0.5965430213798285,23.800314763612075,158.38714149808743)" fill="#0081c6"><path d="M13.62 20.22 c-0.10666 0.05334 -0.21992 0.08 -0.33992 0.08 c-0.17334 0 -0.33668 -0.04666 -0.49002 -0.14 s-0.26334 -0.22668 -0.33 -0.40002 l-1.58 -3.72 l-7.26 0 l-1.58 3.72 c-0.09334 0.22666 -0.25334 0.38666 -0.48 0.48 s-0.45332 0.08668 -0.67998 -0.01998 c-0.22666 -0.09334 -0.38666 -0.25334 -0.48 -0.48 s-0.08668 -0.45332 0.01998 -0.67998 l1.8 -4.26 l4.22 -9.88 c0.06666 -0.17334 0.17332 -0.30668 0.31998 -0.40002 s0.31332 -0.14 0.49998 -0.14 c0.17334 0 0.33334 0.04666 0.48 0.14 s0.25332 0.22668 0.31998 0.40002 c1.0133 2.3734 2.02 4.73 3.02 7.07 s2.0066 4.6966 3.02 7.07 c0.09334 0.22666 0.09334 0.45332 0 0.67998 s-0.25334 0.38666 -0.48 0.48 z M7.26 7.539999999999999 l-2.88 6.72 l5.74 0 z M62.85999999999999 6.279999999999999 l-3.24 0 l0 13.14 c0 0.24 -0.08666 0.44666 -0.26 0.62 s-0.38 0.26 -0.62 0.26 c-0.25334 0 -0.46668 -0.08666 -0.64002 -0.26 s-0.26 -0.38 -0.26 -0.62 l0 -13.14 l-3.24 0 c-0.24 0 -0.44666 -0.08334 -0.62 -0.25 s-0.26 -0.37666 -0.26 -0.63 c0 -0.24 0.08666 -0.44666 0.26 -0.62 s0.38 -0.26 0.62 -0.26 l8.26 0 c0.24 0 0.44666 0.08666 0.62 0.26 s0.26 0.38 0.26 0.62 c0 0.25334 -0.08666 0.46334 -0.26 0.63 s-0.38 0.25 -0.62 0.25 z M93.52 20.22 c-0.10666 0.05334 -0.21992 0.08 -0.33992 0.08 c-0.17334 0 -0.33668 -0.04666 -0.49002 -0.14 s-0.26334 -0.22668 -0.33 -0.40002 l-1.58 -3.72 l-7.26 0 l-1.58 3.72 c-0.09334 0.22666 -0.25334 0.38666 -0.48 0.48 s-0.45332 0.08668 -0.67998 -0.01998 c-0.22666 -0.09334 -0.38666 -0.25334 -0.48 -0.48 s-0.08668 -0.45332 0.01998 -0.67998 l1.8 -4.26 l4.22 -9.88 c0.06666 -0.17334 0.17332 -0.30668 0.31998 -0.40002 s0.31332 -0.14 0.49998 -0.14 c0.17334 0 0.33334 0.04666 0.48 0.14 s0.25332 0.22668 0.31998 0.40002 c1.0133 2.3734 2.02 4.73 3.02 7.07 s2.0066 4.6966 3.02 7.07 c0.09334 0.22666 0.09334 0.45332 0 0.67998 s-0.25334 0.38666 -0.48 0.48 z M87.16 7.539999999999999 l-2.88 6.72 l5.74 0 z M116.08 20.3 c-0.61334 0 -1.1867 -0.11668 -1.72 -0.35002 s-1 -0.55 -1.4 -0.95 s-0.71666 -0.86666 -0.95 -1.4 s-0.35 -1.1067 -0.35 -1.72 c0 -0.25334 0.08666 -0.46668 0.26 -0.64002 s0.38668 -0.26 0.64002 -0.26 c0.24 0 0.44666 0.08666 0.62 0.26 s0.26 0.38668 0.26 0.64002 c0 0.36 0.07 0.7 0.21 1.02 s0.33 0.6 0.57 0.84 s0.52 0.43 0.84 0.57 s0.66 0.21 1.02 0.21 s0.70334 -0.07 1.03 -0.21 s0.61 -0.33 0.85 -0.57 s0.43 -0.52 0.57 -0.84 s0.21 -0.66 0.21 -1.02 c0 -0.44 -0.08666 -0.80334 -0.26 -1.09 s-0.41334 -0.53666 -0.72 -0.75 c-0.14666 -0.10666 -0.31332 -0.20332 -0.49998 -0.28998 s-0.38 -0.17666 -0.58 -0.27 c-0.2 -0.08 -0.40666 -0.16 -0.62 -0.24 s-0.43334 -0.16 -0.66 -0.24 c-0.44 -0.16 -0.88334 -0.34 -1.33 -0.54 s-0.84666 -0.45 -1.2 -0.75 s-0.64334 -0.67334 -0.87 -1.12 s-0.34 -0.99666 -0.34 -1.65 c0 -0.61334 0.11666 -1.1867 0.35 -1.72 s0.55 -1 0.95 -1.4 s0.86666 -0.71666 1.4 -0.95 s1.1067 -0.35 1.72 -0.35 s1.19 0.11666 1.73 0.35 s1.01 0.55 1.41 0.95 s0.71666 0.86666 0.95 1.4 s0.35 1.1067 0.35 1.72 c0 0.24 -0.08666 0.44666 -0.26 0.62 s-0.38668 0.26 -0.64002 0.26 c-0.24 0 -0.44666 -0.08666 -0.62 -0.26 s-0.26 -0.38 -0.26 -0.62 c0 -0.36 -0.07 -0.70334 -0.21 -1.03 s-0.33 -0.61 -0.57 -0.85 s-0.52334 -0.43 -0.85 -0.57 s-0.67 -0.21 -1.03 -0.21 s-0.7 0.07 -1.02 0.21 s-0.6 0.33 -0.84 0.57 s-0.43 0.52334 -0.57 0.85 s-0.21 0.67 -0.21 1.03 c0 0.4 0.08334 0.73334 0.25 1 s0.40332 0.5 0.70998 0.7 c0.32 0.2 0.68 0.38 1.08 0.54 l0.64 0.24 l0.66 0.24 c0.44 0.16 0.88334 0.34334 1.33 0.55 s0.84666 0.46666 1.2 0.78 s0.64334 0.70334 0.87 1.17 s0.34 1.04 0.34 1.72 c0 0.61334 -0.11666 1.1867 -0.35 1.72 s-0.55 1 -0.95 1.4 s-0.87 0.71666 -1.41 0.95 s-1.1167 0.35 -1.73 0.35 z M148.52 20.3 c-0.24 0 -0.44 -0.07998 -0.6 -0.23998 l-6.72 -6.44 l0 5.8 c0 0.24 -0.08334 0.44666 -0.25 0.62 s-0.37666 0.26 -0.63 0.26 c-0.24 0 -0.44666 -0.08666 -0.62 -0.26 s-0.26 -0.38 -0.26 -0.62 l0 -14.02 c0 -0.25334 0.08666 -0.46334 0.26 -0.63 s0.38 -0.25 0.62 -0.25 c0.25334 0 0.46334 0.08334 0.63 0.25 s0.25 0.37666 0.25 0.63 l0 5.8 l6.72 -6.44 c0.17334 -0.17334 0.38 -0.25668 0.62 -0.25002 s0.44666 0.09666 0.62 0.27 c0.17334 0.18666 0.25668 0.4 0.25002 0.64 s-0.09666 0.44666 -0.27 0.62 l-6.64 6.36 l6.64 6.38 c0.17334 0.17334 0.26334 0.38 0.27 0.62 s-0.07668 0.44666 -0.25002 0.62 c-0.16 0.18666 -0.37334 0.28 -0.64 0.28 z M198.56 6.279999999999999 l-3.24 0 l0 13.14 c0 0.24 -0.08666 0.44666 -0.26 0.62 s-0.38 0.26 -0.62 0.26 c-0.25334 0 -0.46668 -0.08666 -0.64002 -0.26 s-0.26 -0.38 -0.26 -0.62 l0 -13.14 l-3.24 0 c-0.24 0 -0.44666 -0.08334 -0.62 -0.25 s-0.26 -0.37666 -0.26 -0.63 c0 -0.24 0.08666 -0.44666 0.26 -0.62 s0.38 -0.26 0.62 -0.26 l8.26 0 c0.24 0 0.44666 0.08666 0.62 0.26 s0.26 0.38 0.26 0.62 c0 0.25334 -0.08666 0.46334 -0.26 0.63 s-0.38 0.25 -0.62 0.25 z M221.68000000000004 13.36 l-0.24 -0.000039062 l0.26 -0.46 l3.62 6.06 c0.08 0.14666 0.12 0.3 0.12 0.46 c0 0.24 -0.08666 0.44666 -0.26 0.62 s-0.38 0.26 -0.62 0.26 c-0.16 0 -0.31 -0.04 -0.45 -0.12 s-0.25 -0.18666 -0.33 -0.32 l-3.88 -6.5 l-0.86 0 l0 6.06 c0 0.24 -0.08666 0.44666 -0.26 0.62 s-0.38 0.26 -0.62 0.26 c-0.25334 0 -0.46668 -0.08666 -0.64002 -0.26 s-0.26 -0.38 -0.26 -0.62 l0 -14.02 c0 -0.24 0.08666 -0.44666 0.26 -0.62 s0.38668 -0.26 0.64002 -0.26 l3.52 0 c0.61334 0 1.19 0.11666 1.73 0.35 s1.01 0.55 1.41 0.95 s0.71666 0.86666 0.95 1.4 s0.35 1.1067 0.35 1.72 s-0.11666 1.1867 -0.35 1.72 s-0.55 1 -0.95 1.4 s-0.87 0.71666 -1.41 0.95 s-1.1167 0.35 -1.73 0.35 z M221.68000000000004 6.279999999999999 l-2.64 0 l0 5.3 l2.64 0 c0.36 0 0.70334 -0.07 1.03 -0.21 s0.61 -0.33 0.85 -0.57 s0.43 -0.52 0.57 -0.84 s0.21 -0.66 0.21 -1.02 s-0.07 -0.70334 -0.21 -1.03 s-0.33 -0.61 -0.57 -0.85 s-0.52334 -0.43 -0.85 -0.57 s-0.67 -0.21 -1.03 -0.21 z M256.12 20.22 c-0.10666 0.05334 -0.21992 0.08 -0.33992 0.08 c-0.17334 0 -0.33668 -0.04666 -0.49002 -0.14 s-0.26334 -0.22668 -0.33 -0.40002 l-1.58 -3.72 l-7.26 0 l-1.58 3.72 c-0.09334 0.22666 -0.25334 0.38666 -0.48 0.48 s-0.45332 0.08668 -0.67998 -0.01998 c-0.22666 -0.09334 -0.38666 -0.25334 -0.48 -0.48 s-0.08668 -0.45332 0.01998 -0.67998 l1.8 -4.26 l4.22 -9.88 c0.06666 -0.17334 0.17332 -0.30668 0.31998 -0.40002 s0.31332 -0.14 0.49998 -0.14 c0.17334 0 0.33334 0.04666 0.48 0.14 s0.25332 0.22668 0.31998 0.40002 c1.0133 2.3734 2.02 4.73 3.02 7.07 s2.0066 4.6966 3.02 7.07 c0.09334 0.22666 0.09334 0.45332 0 0.67998 s-0.25334 0.38666 -0.48 0.48 z M249.76000000000002 7.539999999999999 l-2.88 6.72 l5.74 0 z M282.24 20.3 c-1.1067 0 -2.1434 -0.21006 -3.11 -0.63006 s-1.81 -0.99 -2.53 -1.71 s-1.29 -1.5633 -1.71 -2.53 s-0.63 -2.0034 -0.63 -3.11 c0 -1.0933 0.21 -2.1166 0.63 -3.07 s0.99 -1.78 1.71 -2.48 s1.5633 -1.25 2.53 -1.65 s2.0034 -0.6 3.11 -0.6 c1.0667 0 2.08 0.19666 3.04 0.59 s1.82 0.97 2.58 1.73 c0.18666 0.18666 0.28 0.4 0.28 0.64 s-0.09334 0.44666 -0.28 0.62 c-0.17334 0.17334 -0.38 0.26 -0.62 0.26 s-0.44666 -0.08666 -0.62 -0.26 c-0.6 -0.6 -1.2733 -1.0533 -2.02 -1.36 s-1.5333 -0.46 -2.36 -0.46 c-0.86666 0 -1.6767 0.15666 -2.43 0.47 s-1.41 0.74 -1.97 1.28 s-1 1.1767 -1.32 1.91 s-0.48 1.5267 -0.48 2.38 s0.16334 1.6567 0.49 2.41 s0.77 1.41 1.33 1.97 s1.2167 1.0033 1.97 1.33 s1.5567 0.49 2.41 0.49 c0.82666 0 1.6133 -0.15334 2.36 -0.46 s1.42 -0.75332 2.02 -1.34 c0.17334 -0.18666 0.38 -0.28 0.62 -0.28 s0.44666 0.09334 0.62 0.28 c0.18666 0.17334 0.28 0.38 0.28 0.62 s-0.09334 0.44666 -0.28 0.62 c-0.76 0.76 -1.62 1.34 -2.58 1.74 s-1.9733 0.6 -3.04 0.6 z M316.14000000000004 20.3 c-0.24 0 -0.44 -0.07998 -0.6 -0.23998 l-6.72 -6.44 l0 5.8 c0 0.24 -0.08334 0.44666 -0.25 0.62 s-0.37666 0.26 -0.63 0.26 c-0.24 0 -0.44666 -0.08666 -0.62 -0.26 s-0.26 -0.38 -0.26 -0.62 l0 -14.02 c0 -0.25334 0.08666 -0.46334 0.26 -0.63 s0.38 -0.25 0.62 -0.25 c0.25334 0 0.46334 0.08334 0.63 0.25 s0.25 0.37666 0.25 0.63 l0 5.8 l6.72 -6.44 c0.17334 -0.17334 0.38 -0.25668 0.62 -0.25002 s0.44666 0.09666 0.62 0.27 c0.17334 0.18666 0.25668 0.4 0.25002 0.64 s-0.09666 0.44666 -0.27 0.62 l-6.64 6.36 l6.64 6.38 c0.17334 0.17334 0.26334 0.38 0.27 0.62 s-0.07668 0.44666 -0.25002 0.62 c-0.16 0.18666 -0.37334 0.28 -0.64 0.28 z M336.42 20.3 c-0.25334 0 -0.46668 -0.08666 -0.64002 -0.26 s-0.26 -0.38 -0.26 -0.62 l0 -14.02 c0 -0.24 0.08666 -0.44666 0.26 -0.62 s0.38668 -0.26 0.64002 -0.26 c0.24 0 0.44666 0.08666 0.62 0.26 s0.26 0.38 0.26 0.62 l0 14.02 c0 0.24 -0.08666 0.44666 -0.26 0.62 s-0.38 0.26 -0.62 0.26 z M366.4 20.3 c-0.33334 0 -0.58668 -0.14 -0.76002 -0.42 l-7.22 -11.44 l0 10.98 c0 0.24 -0.08334 0.44666 -0.25 0.62 s-0.37666 0.26 -0.63 0.26 c-0.24 0 -0.44666 -0.08666 -0.62 -0.26 s-0.26 -0.38 -0.26 -0.62 l0 -14.02 c0 -0.24 0.08666 -0.44666 0.26 -0.62 s0.38 -0.26 0.62 -0.26 c0.33334 0 0.58668 0.13334 0.76002 0.4 l7.22 11.44 l0 -10.96 c0 -0.24 0.08334 -0.44666 0.25 -0.62 s0.37666 -0.26 0.63 -0.26 c0.24 0 0.44666 0.08666 0.62 0.26 s0.26 0.38 0.26 0.62 l0 14.02 c0 0.24 -0.08666 0.44666 -0.26 0.62 s-0.38 0.26 -0.62 0.26 z M399.84000000000003 17.96 c-0.76 0.76 -1.6234 1.3399 -2.59 1.7399 s-1.99 0.6 -3.07 0.6 c-1.1067 0 -2.1434 -0.21 -3.11 -0.63 s-1.81 -0.99 -2.53 -1.71 s-1.29 -1.5633 -1.71 -2.53 s-0.63 -2.0034 -0.63 -3.11 s0.21 -2.1334 0.63 -3.08 s0.99334 -1.77 1.72 -2.47 s1.5733 -1.25 2.54 -1.65 s1.9967 -0.6 3.09 -0.6 c1.08 0 2.1034 0.2 3.07 0.6 s1.83 0.98 2.59 1.74 c0.17334 0.17334 0.26 0.38 0.26 0.62 s-0.08666 0.44666 -0.26 0.62 c-0.18666 0.18666 -0.4 0.28 -0.64 0.28 s-0.44666 -0.09334 -0.62 -0.28 c-0.6 -0.58666 -1.2733 -1.0367 -2.02 -1.35 s-1.54 -0.47 -2.38 -0.47 c-0.85334 0 -1.6567 0.15334 -2.41 0.46 s-1.41 0.73 -1.97 1.27 s-1.0033 1.18 -1.33 1.92 s-0.49 1.5367 -0.49 2.39 s0.16334 1.6567 0.49 2.41 s0.77 1.41 1.33 1.97 s1.2167 1.0033 1.97 1.33 s1.5567 0.49 2.41 0.49 c0.77334 0 1.5133 -0.13334 2.22 -0.4 s1.3467 -0.65332 1.92 -1.16 l0 -3.76 l-4.04 0 c-0.25334 0 -0.46668 -0.08666 -0.64002 -0.26 s-0.26 -0.38 -0.26 -0.62 c0 -0.25334 0.08666 -0.46668 0.26 -0.64002 s0.38668 -0.26 0.64002 -0.26 l4.92 0 c0.25334 0 0.46668 0.08666 0.64002 0.26 s0.26 0.38668 0.26 0.64002 l0 5.02 c0 0.24 -0.08666 0.44666 -0.26 0.62 z M454.48 20.22 c-0.10666 0.05334 -0.21992 0.08 -0.33992 0.08 c-0.17334 0 -0.33668 -0.04666 -0.49002 -0.14 s-0.26334 -0.22668 -0.33 -0.40002 l-1.58 -3.72 l-7.26 0 l-1.58 3.72 c-0.09334 0.22666 -0.25334 0.38666 -0.48 0.48 s-0.45332 0.08668 -0.67998 -0.01998 c-0.22666 -0.09334 -0.38666 -0.25334 -0.48 -0.48 s-0.08668 -0.45332 0.01998 -0.67998 l1.8 -4.26 l4.22 -9.88 c0.06666 -0.17334 0.17332 -0.30668 0.31998 -0.40002 s0.31332 -0.14 0.49998 -0.14 c0.17334 0 0.33334 0.04666 0.48 0.14 s0.25332 0.22668 0.31998 0.40002 c1.0133 2.3734 2.02 4.73 3.02 7.07 s2.0066 4.6966 3.02 7.07 c0.09334 0.22666 0.09334 0.45332 0 0.67998 s-0.25334 0.38666 -0.48 0.48 z M448.12 7.539999999999999 l-2.88 6.72 l5.74 0 z M477.48 13.36 l-2.64 -0.000039062 l0 6.06 c0 0.24 -0.08666 0.44666 -0.26 0.62 s-0.38 0.26 -0.62 0.26 c-0.25334 0 -0.46668 -0.08666 -0.64002 -0.26 s-0.26 -0.38 -0.26 -0.62 l0 -14.02 c0 -0.24 0.08666 -0.44666 0.26 -0.62 s0.38668 -0.26 0.64002 -0.26 l3.52 0 c0.61334 0 1.19 0.11666 1.73 0.35 s1.01 0.55 1.41 0.95 s0.71666 0.86666 0.95 1.4 s0.35 1.1067 0.35 1.72 s-0.11666 1.1867 -0.35 1.72 s-0.55 1 -0.95 1.4 s-0.87 0.71666 -1.41 0.95 s-1.1167 0.35 -1.73 0.35 z M477.48 6.279999999999999 l-2.64 0 l0 5.3 l2.64 0 c0.36 0 0.70334 -0.07 1.03 -0.21 s0.61 -0.33 0.85 -0.57 s0.43 -0.52 0.57 -0.84 s0.21 -0.66 0.21 -1.02 s-0.07 -0.70334 -0.21 -1.03 s-0.33 -0.61 -0.57 -0.85 s-0.52334 -0.43 -0.85 -0.57 s-0.67 -0.21 -1.03 -0.21 z M504.38 13.36 l-2.64 -0.000039062 l0 6.06 c0 0.24 -0.08666 0.44666 -0.26 0.62 s-0.38 0.26 -0.62 0.26 c-0.25334 0 -0.46668 -0.08666 -0.64002 -0.26 s-0.26 -0.38 -0.26 -0.62 l0 -14.02 c0 -0.24 0.08666 -0.44666 0.26 -0.62 s0.38668 -0.26 0.64002 -0.26 l3.52 0 c0.61334 0 1.19 0.11666 1.73 0.35 s1.01 0.55 1.41 0.95 s0.71666 0.86666 0.95 1.4 s0.35 1.1067 0.35 1.72 s-0.11666 1.1867 -0.35 1.72 s-0.55 1 -0.95 1.4 s-0.87 0.71666 -1.41 0.95 s-1.1167 0.35 -1.73 0.35 z M504.38 6.279999999999999 l-2.64 0 l0 5.3 l2.64 0 c0.36 0 0.70334 -0.07 1.03 -0.21 s0.61 -0.33 0.85 -0.57 s0.43 -0.52 0.57 -0.84 s0.21 -0.66 0.21 -1.02 s-0.07 -0.70334 -0.21 -1.03 s-0.33 -0.61 -0.57 -0.85 s-0.52334 -0.43 -0.85 -0.57 s-0.67 -0.21 -1.03 -0.21 z"></path></g>
			</g>
		</svg>
	